# xmcd CD database file generated by OrangeCD 6.1
#
# Track frame offsets:
#	150
#	13690
#	23022
#	34776
#	49800
#	61477
#	74216
#	80092
#	94226
#	107102
#	118479
#	131931
#	140999
#	150946
#	170427
#	182192
#	192568
#	202494
#	215362
#	227895
#	241700
#	256424
#	270613
#
# Disc length: 3779 seconds
#
# Revision: 0
# Processed by: cddbd v1.5.2PL0 Copyright (c) Steve Scherf et al.
# Submitted via: OrangeCD 6.1
#
DISCID=6b0ec117
DTITLE=Various Artist - Country Collection
DYEAR=2007
DGENRE=Country
TTITLE0=Freddy Fender - Baby I Want to Love You
TTITLE1=Jim Reeves - Dear Hearts and Gentle People
TTITLE2=? - Don't Let Me
TTITLE3=Don Williams - Don't You Think It's Time
TTITLE4=Don Williams - Follow Me Back to Louisville
TTITLE5=Freddy Fender - Going Out with the Tide
TTITLE6=Jim Reeves - Have I Told You Lately That I Love You
TTITLE7=? - Hide Love in My Heart
TTITLE8=Don Williams - I'm Getting Good at Missing You
TTITLE9=Freddy Fender - I'm Leaving It All Up to You
TTITLE10=Freddy Fender - In the Still of the Night
TTITLE11=Jimmy Dean - It'll Be Easy
TTITLE12=Jim Reeves - Just Call Me Lonesome
TTITLE13=Kenny Rogers and The First Edition - Lay It Down
TTITLE14=Jimmy Dean - Let's Pick Up the Pieces
TTITLE15=Stonewall Jackson - Lovin' the Fool Out of Me
TTITLE16=Jimmy Dean - Never Is a Long Long Day
TTITLE17=Jimmy Dean - One Last Time
TTITLE18=Freddy Fender - Silver Wings
TTITLE19=Merle Haggard - That's the Way Love Goes
TTITLE20=Andy Williams - The Long and Winding Road
TTITLE21=Jimmy Dean - Waking up to Love
TTITLE22=Don Williams - Where Do I Go from Here?
EXTD=
EXTT0=
EXTT1=
EXTT2=
EXTT3=
EXTT4=
EXTT5=
EXTT6=
EXTT7=
EXTT8=
EXTT9=
EXTT10=
EXTT11=
EXTT12=
EXTT13=
EXTT14=
EXTT15=
EXTT16=
EXTT17=
EXTT18=
EXTT19=
EXTT20=
EXTT21=
EXTT22=
PLAYORDER=
